<svg xmlns="http://www.w3.org/2000/svg" viewBox="0 0 315 314.47"><defs><style>.cls-1{fill:#26383f;}</style></defs><g id="Layer_2" data-name="Layer 2"><g id="Layer_1-2" data-name="Layer 1"><g id="NewGroupe0"><g id="NewGroup15-0"><path class="cls-1" d="M31.3,218.64a65.48,65.48,0,0,1,35.3,29.51,65.31,65.31,0,0,0,86.69,27.52,295.94,295.94,0,0,1-24-17.38c-1.21.11-2.44.17-3.69.17a41.06,41.06,0,0,1-3-82,40.65,40.65,0,0,1,7,.08h0L152.78,138a21,21,0,0,1,11.92-9.26L295.5,89.24A154.69,154.69,0,0,0,203.59,7.79C124-18.5,37.23,23.9,9,102.84a155.7,155.7,0,0,0-5.81,83.3,43.76,43.76,0,0,0,28.15,32.5Z"/><path class="cls-1" d="M223.76,279.16c-16.66-3.39-33.88-11.83-48.16-20.4l-.11-.07c-2.39-1.43-4.69-2.87-6.89-4.28-4.91-3.16-9.34-6.23-13.1-8.94-4-2.91-7.26-5.41-9.53-7.21.47-.47.93-.95,1.36-1.46h0c.3-.35.59-.7.88-1.07h0c.29-.36.57-.73.83-1.11.12-.16.23-.32.34-.49,2.84,1.5,6.6,3.4,11.05,5.49,5.78,2.71,12.75,5.73,20.43,8.55.74.27,1.49.55,2.24.81a176.42,176.42,0,0,0,35.53,9l5.13,21.21ZM142,219.3a14.16,14.16,0,0,1-.5,2.53,15,15,0,0,1-1.29,3.25,16.52,16.52,0,0,1-10.09,8.22,16.48,16.48,0,0,1-9.43-.1,16.54,16.54,0,1,1,17.66-26.29c.11.13.22.27.32.41l-.32.15a16.46,16.46,0,0,1,3.75,10.17,15.1,15.1,0,0,1-.1,1.66Zm19.39-70.19-18.68,31a41.18,41.18,0,0,1,23.7,33c4.26,2.09,9.58,4.54,15.57,7q5.52,2.27,10.82,4.12a76.24,76.24,0,0,0,.5-29.72,31.87,31.87,0,0,1,4.47-22.87L215,242.87l.14.58a169.78,169.78,0,0,1-25.84-6.93c-4.17-1.44-8.18-3-11.94-4.51-4.26-1.74-8.2-3.49-11.7-5.12-4.74-2.2-8.67-4.2-11.46-5.68a29.09,29.09,0,0,0,.18-3.25c0-.11,0-.21,0-.32s0-.16,0-.24a28.54,28.54,0,0,0-1.52-9.23,24.18,24.18,0,0,0-.9-2.32c-.13-.31-.27-.62-.42-.92h0a27.88,27.88,0,0,0-2.48-4.18h0c-.21-.31-.44-.62-.66-.91-.48-.61-1-1.21-1.49-1.77-.26-.29-.53-.57-.8-.84s-.5-.51-.76-.75l-.71-.65c-.65-.58-1.33-1.12-2-1.64l-.94-.66a29.91,29.91,0,0,0-2.67-1.6h0c-.67-.35-1.35-.68-2-1s-1.41-.57-2.13-.82l-.68-.21-1.36-.4h0c-.45-.12-.92-.22-1.39-.32a29.29,29.29,0,0,0-11.6,0l-1.38.32h0l-1.36.4-.68.21-1,.36c-.51.19-1,.4-1.51.63l-.74.34c-.61.29-1.21.62-1.8,1h0a28.82,28.82,0,0,0-12.31,14c-.08.21-.17.42-.25.64a26.39,26.39,0,0,0-.84,2.51c-.06.23-.13.46-.19.69-.11.46-.22.92-.32,1.39s-.18.94-.25,1.42-.14,1-.18,1.44a27.09,27.09,0,0,0,0,5.88c0,.48.11,1,.18,1.44s.15.95.25,1.42.21.93.32,1.39l.19.7c.24.85.52,1.69.84,2.51l.24.61c.26.63.55,1.26.86,1.86h0c.25.49.51,1,.78,1.46a27.92,27.92,0,0,0,3.48,4.81c.44.49.9,1,1.36,1.43.27.26.54.52.82.77h0c.4.37.82.73,1.25,1.07.21.18.42.34.64.51l.82.6a27.94,27.94,0,0,0,7.36,3.75,27.79,27.79,0,0,0,3.42.93,29.21,29.21,0,0,0,5.81.59,28.78,28.78,0,0,0,7.36-1,5.68,5.68,0,0,0,.84.86c.64.55,4.29,3.64,10.14,8,5.37,4,12.59,9.15,21,14.37,15.81,9.82,35.86,20,55.89,24.14q3.24.66,6.47,1.1h0a10.37,10.37,0,0,0,.34,1.12,26.06,26.06,0,0,0,25.82,19.59l27.64-.61A34.67,34.67,0,0,0,315,278.12l-1.8-59v-8A6.14,6.14,0,0,0,303,206.48h0a6,6,0,0,0-.91,1,6.39,6.39,0,0,0-1.22.88c-5.48,5.08-15.41,13.29-32.71,25A54.85,54.85,0,0,1,256,239.5l-6.68,2.39a54,54,0,0,1-21,3.12h-.14l-.13-.55-20.07-83a32.8,32.8,0,0,1,9.37-4.07l91.43-23.75a155.36,155.36,0,0,0-8.13-32.21l-127.2,38.35a21.21,21.21,0,0,0-12,9.34Z"/></g></g></g></g></svg>