<svg id="Layer_1" data-name="Layer 1" xmlns="http://www.w3.org/2000/svg" viewBox="0 0 164.5 223.87"><defs><style>.cls-1{fill:#fff;}.cls-2{fill:#1d3767;}.cls-3{fill:#b42025;}</style></defs><path class="cls-1" d="M420.94,185.7a56.31,56.31,0,0,1-7.68,11.57c-19.35,22.43-45.39,29.95-74.57,3.64V353.83c.32,17.36,13.52,23.23,25.7,27.81l9.54,2.7c14.29,1.85,28.17,5.4,47,25.24,18.85-19.84,32.73-23.39,47-25.24l9.53-2.7c12.19-4.58,25.39-10.45,25.71-27.81V200.91C474,227.22,448,219.7,428.63,197.27a56.77,56.77,0,0,1-7.69-11.57" transform="translate(-338.69 -185.7)"/><path class="cls-2" d="M428.75,207a51.33,51.33,0,0,1-7.21-10.77A51.33,51.33,0,0,1,414.33,207,49.63,49.63,0,0,1,346,213.63V348.56c.29,15.7,12.38,21,23.54,25.15l8.73,2.44c13.12,1.67,25.85,4.89,43.16,22.91l.07-.1.08.1c17.3-18,30-21.24,43.15-22.91l8.73-2.44c11.16-4.14,23.25-9.45,23.54-25.15V213.63A49.63,49.63,0,0,1,428.75,207Z" transform="translate(-338.69 -185.7)"/><path class="cls-1" d="M440,222.44s-23.23-3.38-34.35,14.57c-11,17.73-3.23,33.84-3.23,33.84s23.33,3.92,35.71-15.16C448.45,239.85,440,222.44,440,222.44Z" transform="translate(-338.69 -185.7)"/><path class="cls-2" d="M415.11,236.05l10.4,5.33c.4-.43.8-.84,1.2-1.25l-10.42-5.33C415.89,235.21,415.5,235.63,415.11,236.05Z" transform="translate(-338.69 -185.7)"/><path class="cls-2" d="M411.61,240.51l10.13,5.18c.39-.49.79-1,1.2-1.45L412.69,239C412.32,239.49,412,240,411.61,240.51Z" transform="translate(-338.69 -185.7)"/><path class="cls-2" d="M408.87,245.15l9.78,5c.28-.48.57-1,.86-1.42l-9.85-5C409.39,244.17,409.13,244.66,408.87,245.15Z" transform="translate(-338.69 -185.7)"/><path class="cls-2" d="M425.44,227.22c-.51.34-1,.7-1.54,1.07l10,5.14,1.38-1.16Z" transform="translate(-338.69 -185.7)"/><path class="cls-2" d="M419.14,232.08l10.38,5.3,1.42-1.31-10.31-5.27C420.13,231.21,419.63,231.64,419.14,232.08Z" transform="translate(-338.69 -185.7)"/><path class="cls-2" d="M430.66,230.74a134.1,134.1,0,0,1,10.77-8.53l-.89-.59s-5.35,1.89-12.45,7.8Z" transform="translate(-338.69 -185.7)"/><path class="cls-2" d="M413.33,246.36a134.11,134.11,0,0,0-11.68,24.75l1.06.64a162.2,162.2,0,0,1,12.73-24.34Z" transform="translate(-338.69 -185.7)"/><polygon class="cls-1" points="141.78 44.62 144.29 51.77 152.22 51.77 145.89 56.81 148.3 64.51 141.78 59.53 135.25 64.21 137.76 56.76 131.64 51.77 139.27 51.77 141.78 44.62"/><polygon class="cls-1" points="141.78 67.99 144.29 75.14 152.22 75.14 145.89 80.17 148.3 87.88 141.78 82.9 135.25 87.58 137.76 80.13 131.64 75.14 139.27 75.14 141.78 67.99"/><polygon class="cls-1" points="116.68 67.99 119.2 75.14 127.12 75.14 120.8 80.17 123.21 87.88 116.68 82.9 110.16 87.58 112.67 80.13 106.55 75.14 114.18 75.14 116.68 67.99"/><polygon class="cls-1" points="116.48 44.62 118.99 51.77 126.93 51.77 120.6 56.81 123.01 64.51 116.48 59.53 109.96 64.21 112.47 56.76 106.35 51.77 113.98 51.77 116.48 44.62"/><polygon class="cls-1" points="48.91 44.62 51.42 51.77 59.35 51.77 53.02 56.81 55.44 64.51 48.91 59.53 42.39 64.21 44.89 56.76 38.77 51.77 46.4 51.77 48.91 44.62"/><polygon class="cls-1" points="48.91 67.99 51.42 75.14 59.35 75.14 53.02 80.17 55.44 87.88 48.91 82.9 42.39 87.58 44.89 80.13 38.77 75.14 46.4 75.14 48.91 67.99"/><polygon class="cls-1" points="23.82 67.99 26.33 75.14 34.25 75.14 27.93 80.17 30.34 87.88 23.82 82.9 17.3 87.58 19.8 80.13 13.68 75.14 21.31 75.14 23.82 67.99"/><polygon class="cls-1" points="23.61 44.62 26.13 51.77 34.06 51.77 27.73 56.81 30.14 64.51 23.61 59.53 17.09 64.21 19.6 56.76 13.48 51.77 21.11 51.77 23.61 44.62"/><path class="cls-1" d="M353.52,278.81v64.8c.26,14.42,11.15,19.29,21.21,23.09l7.86,2.25c11.82,1.54,23.29,4.49,38.88,21l.07-.09.07.09c15.59-16.55,27.06-19.5,38.88-21l7.87-2.25c10.05-3.8,20.94-8.67,21.2-23.09v-64.8Z" transform="translate(-338.69 -185.7)"/><path class="cls-3" d="M425.57,287.38H409.24v10.26h4.3V357c-2.64-.3-4.91-.47-4.91-.47v9.29a65.12,65.12,0,0,1,9.75,1.83c3.25,1,11.26,4.72,11.26,4.72V362.11a31.59,31.59,0,0,0-4.07-2.08V326.81h6.29l1.51,4.23h6.76V312h-6.76l-1.62,4.53h-6.18v-18.9h7.92l2.58,6h8.15V287.38Z" transform="translate(-338.69 -185.7)"/><path class="cls-3" d="M401.52,287.38H386v10.26h3.5v25.08L376.93,286.8v0H361.48V297h3.42V342.2c-2.76-.14-5.17-.14-5.17-.14l.84,10.44a58.26,58.26,0,0,1,9.87,1.28c3.34.84,11.66,4.41,11.66,4.41l-.93-11.56a30.59,30.59,0,0,0-4.24-2V323.24l13,37.2L401.52,364V297.64h3.34V287.38Z" transform="translate(-338.69 -185.7)"/><path class="cls-3" d="M473.12,329.88v14.6c-3.17.71-6.62,1.53-9.49,2.34V297.66l3.5-1.6v-8.68h-19v8.68l3.5,1.6v54c-2,1.05-3.78,2.08-5.17,3v11.73c3.8-2.2,13.26-7.56,17.86-9.41a72.78,72.78,0,0,1,18.33-4.39V329.88Z" transform="translate(-338.69 -185.7)"/></svg>