<svg xmlns="http://www.w3.org/2000/svg" viewBox="0 0 164.5 223.87"><defs><style>.cls-1{fill:#fff;}.cls-2{fill:#1d3767;}.cls-3{fill:#b42025;}</style></defs><g id="Layer_2" data-name="Layer 2"><g id="Layer_1-2" data-name="Layer 1"><path class="cls-1" d="M82.25,0a56.86,56.86,0,0,1-7.68,11.57C55.21,34,29.18,41.51,0,15.2V168.12c.32,17.37,13.51,23.24,25.7,27.81l9.54,2.71c14.29,1.85,28.17,5.39,47,25.23,18.84-19.84,32.72-23.38,47-25.23l9.53-2.71c12.19-4.57,25.39-10.44,25.7-27.81V15.2C135.33,41.51,109.29,34,89.94,11.57A56.91,56.91,0,0,1,82.25,0"/><path class="cls-2" d="M90.06,21.3a51.65,51.65,0,0,1-7.21-10.78A51.65,51.65,0,0,1,75.64,21.3,49.63,49.63,0,0,1,7.35,27.92V162.86c.29,15.7,12.38,21,23.54,25.14l8.73,2.45c13.11,1.67,25.85,4.88,43.15,22.91l.08-.11.07.11c17.31-18,30-21.24,43.16-22.91l8.73-2.45c11.16-4.14,23.25-9.44,23.54-25.14V27.92A49.63,49.63,0,0,1,90.06,21.3Z"/><path class="cls-1" d="M101.34,36.74S78.12,33.35,67,51.31C56,69,63.77,85.15,63.77,85.15S87.09,89.07,99.48,70C109.76,54.14,101.34,36.74,101.34,36.74Z"/><path class="cls-2" d="M76.42,50.35l10.4,5.32L88,54.42,77.6,49.09C77.2,49.5,76.81,49.92,76.42,50.35Z"/><path class="cls-2" d="M72.91,54.81,83,60c.4-.49.8-1,1.21-1.45L74,53.29C73.62,53.78,73.26,54.29,72.91,54.81Z"/><path class="cls-2" d="M70.18,59.45l9.77,5c.29-.49.57-1,.87-1.42L71,58C70.69,58.47,70.43,59,70.18,59.45Z"/><path class="cls-2" d="M86.75,41.51c-.51.34-1,.7-1.54,1.07l10,5.14,1.38-1.15Z"/><path class="cls-2" d="M80.44,46.37l10.38,5.31,1.42-1.32-10.3-5.27C81.44,45.5,80.94,45.93,80.44,46.37Z"/><path class="cls-2" d="M92,45a135.16,135.16,0,0,1,10.78-8.53l-.89-.6s-5.36,1.89-12.45,7.8Z"/><path class="cls-2" d="M74.64,60.65A134,134,0,0,0,63,85.41l1.06.64A163.1,163.1,0,0,1,76.74,61.7Z"/><polygon class="cls-1" points="141.78 44.62 144.29 51.77 152.22 51.77 145.89 56.81 148.3 64.51 141.78 59.53 135.25 64.21 137.76 56.76 131.64 51.77 139.27 51.77 141.78 44.62"/><polygon class="cls-1" points="141.78 67.99 144.29 75.14 152.22 75.14 145.89 80.17 148.3 87.88 141.78 82.9 135.25 87.58 137.76 80.13 131.64 75.14 139.27 75.14 141.78 67.99"/><polygon class="cls-1" points="116.68 67.99 119.2 75.14 127.12 75.14 120.8 80.17 123.21 87.88 116.68 82.9 110.16 87.58 112.67 80.13 106.55 75.14 114.18 75.14 116.68 67.99"/><polygon class="cls-1" points="116.48 44.62 118.99 51.77 126.93 51.77 120.6 56.81 123.01 64.51 116.48 59.53 109.96 64.21 112.47 56.76 106.35 51.77 113.98 51.77 116.48 44.62"/><polygon class="cls-1" points="48.91 44.62 51.42 51.77 59.35 51.77 53.02 56.81 55.44 64.51 48.91 59.53 42.39 64.21 44.89 56.76 38.77 51.77 46.4 51.77 48.91 44.62"/><polygon class="cls-1" points="48.91 67.99 51.42 75.14 59.35 75.14 53.02 80.17 55.44 87.88 48.91 82.9 42.39 87.58 44.89 80.13 38.77 75.14 46.4 75.14 48.91 67.99"/><polygon class="cls-1" points="23.82 67.99 26.33 75.14 34.25 75.14 27.93 80.17 30.34 87.88 23.82 82.9 17.3 87.58 19.8 80.13 13.68 75.14 21.31 75.14 23.82 67.99"/><polygon class="cls-1" points="23.61 44.62 26.13 51.77 34.06 51.77 27.73 56.81 30.14 64.51 23.61 59.53 17.09 64.21 19.6 56.76 13.48 51.77 21.11 51.77 23.61 44.62"/><path class="cls-1" d="M14.83,93.1v64.8C15.09,172.32,26,177.2,36,181l7.87,2.24c11.82,1.54,23.29,4.49,38.88,21a.86.86,0,0,0,.07-.1.36.36,0,0,0,.07.1c15.59-16.56,27.06-19.51,38.88-21l7.86-2.24c10.06-3.8,21-8.68,21.21-23.1V93.1Z"/><path class="cls-3" d="M86.88,101.68H70.55v10.26h4.3v59.38c-2.64-.31-4.91-.47-4.91-.47v9.29A64.25,64.25,0,0,1,79.68,182c3.26,1,11.27,4.72,11.27,4.72V176.4a33.23,33.23,0,0,0-4.07-2.08V141.1h6.29l1.5,4.23h6.76v-19H94.67l-1.61,4.54H86.88v-18.9h7.91l2.59,6h8.15V101.68Z"/><path class="cls-3" d="M62.82,101.68H47.29v10.26H50.8V137L38.24,101.1v0H22.78v10.26h3.43V156.5c-2.76-.14-5.17-.15-5.17-.15l.83,10.45a57.84,57.84,0,0,1,9.88,1.27c3.34.85,11.66,4.41,11.66,4.41l-.93-11.56a31.39,31.39,0,0,0-4.24-2V137.54l13,37.2,11.58,3.58V111.94h3.35V101.68Z"/><path class="cls-3" d="M134.43,144.18v14.59c-3.17.71-6.62,1.54-9.49,2.34V112l3.5-1.6v-8.67h-19v8.67l3.5,1.6v54c-2,1.06-3.78,2.09-5.18,3v11.73c3.81-2.19,13.27-7.56,17.87-9.41a73.28,73.28,0,0,1,18.33-4.39V144.18Z"/></g></g></svg>